<svg width="65" height="65" viewBox="0 0 65 65" fill="none" xmlns="http://www.w3.org/2000/svg">
<g clip-path="url(#clip0_918_4754)">
<path d="M54.1415 14H13.8585C12.8363 14 12 13.325 12 12.5C12 11.675 12.8363 11 13.8585 11H54.1415C55.1637 11 56 11.675 56 12.5C56 13.325 55.1637 14 54.1415 14Z" fill="black"/>
<path d="M54.1415 22H13.8585C12.8363 22 12 21.325 12 20.5C12 19.675 12.8363 19 13.8585 19H54.1415C55.1637 19 56 19.675 56 20.5C56 21.325 55.1637 22 54.1415 22Z" fill="black"/>
<path d="M54.0873 31H34.9127C33.8607 31 33 30.325 33 29.5C33 28.675 33.8607 28 34.9127 28H54.0873C55.1393 28 56 28.675 56 29.5C56 30.325 55.1393 31 54.0873 31Z" fill="black"/>
<path d="M0 0V64.9073H39.4179C37.5 64 36.4286 63.8545 35.5 62H3V3H62V36C63.8107 36.9272 64.5 37.5 65 39.8252V0H0Z" fill="black"/>
<path d="M60.1252 41.9579C57.8966 40.0571 54.9252 38.9444 51.7681 38.9444C44.5716 38.9444 38.7681 44.8324 38.7681 51.9722C38.7681 54.9857 39.7895 57.7675 41.5538 60.0392C43.5966 62.6819 46.6609 64.49 50.0966 64.9073C50.6538 64.9536 51.1645 65 51.7681 65C52.3716 65 52.8824 64.9536 53.4395 64.9073C59.8931 64.0728 64.8609 58.5556 64.8609 51.9722C64.8609 47.985 63.0502 44.3688 60.1716 41.9579H60.1252ZM60.1252 58.9265C59.8002 59.2974 59.4288 59.7147 59.0574 60.0392C57.1074 61.7546 54.6002 62.821 51.7681 62.821C48.9359 62.821 46.4752 61.7546 44.5252 60.0392C42.3431 58.0457 40.9038 55.1712 40.9038 51.9722C40.9038 45.9451 45.7788 41.077 51.7681 41.077C55.1573 41.077 58.1288 42.607 60.1252 44.9715C61.7502 46.8723 62.6788 49.3295 62.6788 51.9722C62.6788 54.6148 61.7502 57.072 60.1252 58.9265Z" fill="#183DD0"/>
<path d="M58.4537 48.8195L57.3858 49.8859L50.5608 56.7475C50.3287 56.9329 50.0037 57.072 49.7251 57.072C49.4001 57.072 49.0751 56.9329 48.843 56.7475L46.1965 54.1048L45.0823 52.9458C44.5715 52.4358 44.5715 51.7404 45.0823 51.2767C45.268 51.0449 45.5001 50.9522 45.8715 50.9522C46.1501 50.9058 46.5215 51.0449 46.7537 51.2767L49.7251 54.1976L56.0858 47.8459L56.7823 47.1505C57.293 46.6405 57.9894 46.6405 58.4537 47.1505C58.9644 47.5678 58.9644 48.3096 58.4537 48.8195Z" fill="#183DD0"/>
<path d="M20.0571 41.6334C16.2499 41.6334 13.0928 38.5271 13.0928 34.679C13.0928 30.8309 16.2035 27.7247 20.0571 27.7247C23.9106 27.7247 27.0213 30.8309 27.0213 34.679C27.0213 38.5271 23.9106 41.6334 20.0571 41.6334ZM20.0571 31.4337C18.2463 31.4337 16.7606 32.9173 16.7606 34.7254C16.7606 36.5335 18.2463 38.0171 20.0571 38.0171C21.8678 38.0171 23.3535 36.5335 23.3535 34.7254C23.3535 32.9173 21.8678 31.4337 20.0571 31.4337Z" fill="black"/>
<path d="M29.482 57.1648C28.4606 57.1648 27.6249 56.3302 27.6249 55.3103V49.7004C27.6249 48.4023 26.3713 47.3359 24.7928 47.3359H15.3213C13.7428 47.3359 12.4892 48.4023 12.4892 49.7004V55.3103C12.4892 56.3302 11.6535 57.1648 10.632 57.1648C9.61062 57.1648 8.7749 56.3302 8.7749 55.3103V49.7004C8.7749 46.4087 11.6999 43.6733 15.2749 43.6733H24.7928C28.3678 43.6733 31.2928 46.3623 31.2928 49.7004V55.3103C31.2928 56.3302 30.457 57.1648 29.4356 57.1648H29.482Z" fill="black"/>
</g>
<defs>
<clipPath id="clip0_918_4754">
<rect width="65" height="65" fill="white"/>
</clipPath>
</defs>
</svg>
