<svg width="67" height="67" viewBox="0 0 67 67" fill="none" xmlns="http://www.w3.org/2000/svg">
<g clip-path="url(#clip0_918_4360)">
<path d="M42.4012 44.555L41.4919 43.55C42.8319 42.1621 43.8369 40.535 44.5069 38.7643C44.7941 37.9986 45.2248 37.6157 46.0862 37.52C46.6605 37.4721 47.2348 37.185 47.6655 36.8021C48.7183 35.8929 49.1012 34.6007 49.2926 33.3086C49.3883 32.7821 49.0533 32.495 48.5269 32.6864C48.0005 32.83 47.5219 33.0693 46.9955 33.2607C46.1341 33.5957 45.7512 33.3086 45.7033 32.4471C45.6555 30.6764 45.7033 28.8579 45.4641 27.0871C45.3205 25.6993 44.9855 24.2157 44.4591 22.9236C43.8369 21.44 42.4969 20.9136 40.8698 21.3443C39.7691 21.6314 38.6683 22.11 37.6155 22.5407C35.2705 23.5457 32.9255 23.5936 30.5326 22.5407C29.7191 22.2057 28.9055 21.8229 28.0919 21.5357C25.4598 20.6264 23.7848 21.3443 23.0191 23.9286C22.5883 25.3643 22.4926 26.8479 22.2533 28.3314C22.3491 28.3314 22.3969 28.3314 22.4926 28.3314C22.4448 29.7193 22.3491 31.1071 22.3012 32.495C22.3012 33.2607 21.8705 33.5 21.1048 33.165C20.6741 32.9736 20.2433 32.7343 19.7648 32.5907C18.9991 32.3514 18.6641 32.6386 18.7598 33.4043C18.8555 33.8829 18.9991 34.3614 19.1426 34.84C19.6691 36.3714 20.6262 37.4243 22.4448 37.6157C22.7798 37.6157 23.1148 37.9986 23.3062 38.3336C24.2633 39.9129 24.9333 41.6357 26.1298 43.0714C26.7998 43.885 27.5655 44.6029 28.3791 45.1771L27.7569 46.3736C25.1726 44.6029 23.4498 42.21 22.2533 39.4343C22.1576 39.195 21.8226 38.9079 21.5833 38.86C20.0519 38.525 18.9033 37.6636 18.2812 36.3714C17.8983 35.5579 17.5633 34.6486 17.4676 33.7393C17.2283 32.1121 17.6591 31.6336 19.2862 31.2507C18.6162 28.5229 18.1376 25.795 18.3291 23.0193C18.4726 21.3921 18.7119 19.7171 19.1905 18.1379C20.1476 14.9793 22.3491 12.73 25.4598 11.39C29.2405 9.76286 33.2126 8.71 37.4241 8.90143C39.0033 8.99715 40.6783 9.28429 42.1619 9.85857C44.8419 10.8157 45.6076 12.4907 45.1291 15.075C47.6655 16.7979 48.6705 19.1907 48.6705 21.9664C48.6705 24.9336 48.4312 27.9007 48.2876 30.82C48.2876 30.9636 48.2876 31.155 48.2876 31.2986C50.2498 31.6336 50.7762 32.3514 50.4412 34.2179C50.1541 35.6536 49.6276 36.9457 48.4312 37.9029C48.0483 38.2379 47.5698 38.5729 47.1391 38.6686C45.9905 38.8121 45.6555 39.4821 45.2726 40.3436C44.5548 41.9229 43.5976 43.3586 42.4012 44.6029V44.555ZM37.4241 9.95429C37.0891 9.95429 36.8019 9.95429 36.4669 9.95429C35.9405 9.95429 35.4141 10.0021 35.4141 10.6243C35.4141 11.2464 35.9405 11.2464 36.4669 11.2943C37.5676 11.3421 38.7162 11.39 39.7691 11.5814C41.8269 12.0121 42.3533 12.7779 42.2576 14.74C42.2576 15.1707 42.3055 15.6493 42.8798 15.6014C43.1669 15.6014 43.5498 15.2186 43.5976 14.9314C44.0283 13.4 43.3105 11.7729 41.8748 10.9593C40.4869 10.1936 39.0033 9.95429 37.4241 9.95429ZM32.9733 11.6771C33.5955 11.5336 34.0262 11.4857 34.3612 11.2943C34.6005 11.1986 34.7919 10.8157 34.7919 10.6243C34.7919 10.4329 34.3612 10.1936 34.1219 10.1457C33.7391 10.1457 33.3083 10.1457 32.9733 10.2893C32.6862 10.4329 32.3033 10.7679 32.3033 11.055C32.3033 11.2943 32.7819 11.5336 32.9733 11.6771Z" fill="black"/>
<path d="M53.5522 52.0207V52.5471C53.2651 53.1214 52.7865 53.4086 51.973 53.4086H48.4315C47.618 53.4086 47.2351 53.1693 46.948 52.4993L45.8951 50.1064L42.8323 61.1614C42.6408 61.7836 42.1623 62.1186 41.4923 62.1186C40.8701 62.1186 40.4394 61.7357 40.2958 61.0657L37.0894 46.6607L34.6487 52.4993C34.3615 53.1693 33.9308 53.4086 33.1651 53.4086H12.778C12.1558 53.4086 11.6773 53.1693 11.4858 52.6429C11.3423 52.3079 11.3901 51.925 11.5815 51.59C11.8208 51.3029 12.2037 51.1114 12.6344 51.1114C13.6873 51.0636 29.528 51.0636 32.1123 51.1114H32.543L36.228 42.3057C36.4673 41.7314 36.8501 41.4443 37.3765 41.3964C38.0465 41.3964 38.573 41.7314 38.6687 42.3057C38.8123 42.88 38.9558 43.4543 39.0994 44.0764L41.6837 55.8493L44.3637 46.23C44.5551 45.7036 44.9858 45.3207 45.5601 45.2729C46.1344 45.2729 46.613 45.56 46.8523 46.0864L47.0437 46.6129C47.6658 47.9529 48.288 49.3407 48.9101 50.7286L49.0537 51.1114H49.9151C50.633 51.1114 51.303 51.1114 52.0208 51.0636C52.8344 51.0157 53.2651 51.3507 53.5044 51.9729H53.5522V52.0207Z" fill="#183DD0"/>
<path d="M18.09 0V3.54143H3.82857V17.085H0V0H18.09Z" fill="black"/>
<path d="M67.0002 0V17.085H63.1716V3.54143H48.9102V0H67.0002Z" fill="black"/>
<path d="M18.09 63.4107V67H0V49.915H3.82857V63.4107H18.09Z" fill="black"/>
<path d="M67.0002 49.915V67H48.9102V63.4107H63.1716V49.915H67.0002Z" fill="black"/>
</g>
<defs>
<clipPath id="clip0_918_4360">
<rect width="67" height="67" fill="white"/>
</clipPath>
</defs>
</svg>
