<svg width="68" height="67" viewBox="0 0 68 67" fill="none" xmlns="http://www.w3.org/2000/svg">
<g clip-path="url(#clip0_921_5101)">
<path d="M5.55461 67C4.07171 67 2.77731 66.4495 1.67141 65.3485C0.565515 64.2474 0 62.9587 0 61.4949V36.7343H3.4V63.5932L30.5252 63.5446V67H5.55461Z" fill="black"/>
<path d="M36.0674 67V63.5932H63.4666V36.7343H66.5926V61.4949C66.5926 62.9587 66.0397 64.2474 64.9212 65.3485C63.8153 66.4495 62.5209 67 61.038 67H36.0674Z" fill="black"/>
<path d="M0 31.2291V6.46853C0 5.00466 0.552948 3.71596 1.67141 2.61493C2.77731 1.51391 4.07171 0.963394 5.55461 0.963394H30.5252V4.54237H3.4V31.2291H0Z" fill="black"/>
<path d="M34.0689 45.2922H24.2415C23.8268 45.2922 23.8268 45.2922 23.8394 44.8794C23.9274 42.4271 24.7945 40.2626 26.4408 38.4359C27.9739 36.7218 29.8967 35.6583 32.1587 35.2204C34.1946 34.8325 36.2053 35.0327 38.1155 35.871C41.3829 37.3223 43.3811 39.8121 44.1351 43.2904C44.2482 43.8534 44.311 44.4164 44.311 44.992C44.311 45.2797 44.311 45.2922 43.9843 45.2922H34.0815H34.0689Z" fill="black"/>
<path d="M39.674 28.2889C39.674 31.3668 37.1481 33.8441 34.044 33.8441C30.9525 33.8441 28.4391 31.3417 28.4517 28.2513C28.4517 25.1735 30.9651 22.6837 34.0692 22.6837C37.1732 22.6837 39.674 25.186 39.674 28.2889Z" fill="black"/>
<path d="M55.1313 18.7425H49.8909C49.6772 18.7425 49.6646 18.7425 49.6772 18.5173C49.7275 17.2161 50.1925 16.065 51.0721 15.0891C51.889 14.1757 52.9195 13.6127 54.1259 13.3875C55.2193 13.1748 56.2874 13.2874 57.2928 13.7378C59.0396 14.5135 60.1078 15.8398 60.4974 17.679C60.5602 17.9793 60.5979 18.2796 60.5854 18.5798C60.5854 18.73 60.5854 18.7425 60.4094 18.7425H55.1313Z" fill="#183DD0"/>
<path d="M58.1225 9.70905C58.1225 11.3481 56.7778 12.6618 55.119 12.6618C53.4602 12.6618 52.1406 11.3231 52.1406 9.68403C52.1406 8.045 53.4853 6.71877 55.1316 6.71877C56.7778 6.71877 58.1225 8.05751 58.1225 9.69654V9.70905Z" fill="#183DD0"/>
<path d="M45.0401 24.8482C44.462 24.8482 43.9593 24.6355 43.532 24.2101C43.1048 23.7847 42.8911 23.2842 42.8911 22.7087V2.76508C42.8911 2.18954 43.1048 1.70158 43.532 1.26368C43.9593 0.838278 44.4746 0.62558 45.0401 0.62558H65.2101C65.7882 0.62558 66.2909 0.838278 66.7181 1.26368C67.1454 1.68907 67.3716 2.18954 67.3716 2.76508V22.7087C67.3716 23.2842 67.158 23.7722 66.7181 24.2101C66.2909 24.6355 65.7756 24.8482 65.2101 24.8482H45.0401Z" stroke="#183DD0" stroke-miterlimit="10"/>
</g>
<defs>
<clipPath id="clip0_921_5101">
<rect width="68" height="67" fill="white"/>
</clipPath>
</defs>
</svg>
