<svg width="72" height="72" viewBox="0 0 72 72" fill="none" xmlns="http://www.w3.org/2000/svg">
<path d="M54.6406 39.9716C54.66 39.7578 54.6795 39.5343 54.6892 39.3108C54.8934 35.0838 55.2533 30.8568 55.2435 26.6395C55.2338 22.7138 53.8625 19.2739 50.4197 16.8154C51.1102 13.0743 50.021 10.7421 46.4225 9.34283C44.3997 8.56545 42.1531 8.10874 39.9843 8.01157C34.2852 7.73948 28.8973 9.24566 23.7525 11.5778C19.4928 13.5115 16.5557 16.7571 15.2428 21.2367C14.5912 23.4814 14.2313 25.8622 14.0563 28.204C13.7645 32.1784 14.4258 36.0944 15.34 39.9522C13.1129 40.5255 12.5488 41.2251 12.8698 43.5281C13.0545 44.8108 13.4727 46.0935 13.9979 47.279C14.8537 49.1933 16.3904 50.3788 18.4619 50.8646C18.8217 50.9521 19.2496 51.3505 19.3858 51.7003C21.0002 55.6747 23.3149 59.0951 26.8452 61.6313C30.6187 64.1384 37.2028 64.6729 42.9603 61.573C42.5907 60.99 42.2698 60.3778 41.9975 59.7462C37.1153 62.3213 32.1845 62.4962 27.6622 59.9114C26.5535 59.1049 25.5226 58.104 24.5889 56.9088C23.0134 54.907 22.0798 52.4 20.7863 50.1553C20.5431 49.7277 20.0471 49.1836 19.6192 49.1447C17.1198 48.9212 15.8263 47.4247 15.1261 45.2092C14.9121 44.5484 14.7079 43.8682 14.5912 43.188C14.4064 42.1288 14.9024 41.711 15.9333 42.0414C16.5557 42.2454 17.1295 42.5855 17.7422 42.8285C18.8217 43.2658 19.308 42.9645 19.3663 41.847C19.4733 39.8744 19.5609 37.8921 19.6484 35.9195C19.5414 35.9098 19.4344 35.8904 19.3177 35.8806C19.6387 33.7817 19.7554 31.6245 20.3292 29.5936C21.3698 25.9302 23.6358 24.9001 27.2051 26.2023C28.3332 26.6104 29.4419 27.0963 30.5312 27.6015C33.7308 29.1077 36.9013 29.0105 40.0913 27.5821C41.5404 26.9408 43.0089 26.2897 44.5261 25.8622C46.7629 25.2208 48.5719 25.9399 49.4083 28.0777C50.1474 29.9628 50.5559 32.0229 50.7698 34.0344C51.0519 36.5706 50.9935 39.1456 51.081 41.711C51.0908 41.8373 51.1005 41.9539 51.1199 42.0608C52.0147 41.8665 52.9483 41.7596 53.9111 41.7596C55.2144 41.7596 56.4787 41.9539 57.6652 42.3135C57.5193 40.9433 56.6148 40.3117 54.6406 39.9716ZM35.7926 11.4612C35.3064 11.743 34.7034 11.8013 33.8864 12.0248C33.6044 11.7624 32.9917 11.4418 32.982 11.1114C32.9723 10.7518 33.4585 10.2368 33.8573 10.0425C34.3144 9.81897 34.9173 9.76067 35.4328 9.82869C35.7732 9.86756 36.2886 10.1979 36.347 10.4797C36.4053 10.7713 36.0941 11.296 35.7926 11.4612ZM48.2898 16.6794C48.1731 17.0875 47.648 17.6414 47.2881 17.6608C46.5587 17.6997 46.442 17.0486 46.4712 16.4073C46.6268 13.6184 45.8779 12.5107 43.1256 11.8985C41.6668 11.5681 40.1399 11.5584 38.6325 11.4612C37.942 11.4126 37.2028 11.4029 37.1931 10.5089C37.1931 9.63434 37.9128 9.53717 38.6227 9.55661C39.0507 9.56632 39.4786 9.55661 39.9065 9.55661C42.0169 9.57604 44.0787 9.87728 45.9265 10.985C47.9203 12.19 48.9025 14.4638 48.2898 16.6794Z" fill="black"/>
<path d="M2.28809 22.1599V2.72537H21.739" stroke="black" stroke-width="3" stroke-miterlimit="10"/>
<path d="M69.3938 22.1599V2.72537H49.9429" stroke="black" stroke-width="3" stroke-miterlimit="10"/>
<path d="M2.28809 50.3399V69.7744H21.739" stroke="black" stroke-width="3" stroke-miterlimit="10"/>
<path d="M69.3938 50.3399V69.7744H49.9429" stroke="black" stroke-width="3" stroke-miterlimit="10"/>
<path d="M61.283 46.0546C60.2034 45.1314 58.9391 44.4221 57.5581 43.9751C56.994 43.7905 56.4202 43.6447 55.8173 43.5475C55.2143 43.4504 54.5919 43.4018 53.9597 43.4018C47.6576 43.4018 42.5518 48.5422 42.5518 54.839C42.5518 56.2966 42.8241 57.6861 43.3298 58.9688C43.5729 59.6102 43.8841 60.2321 44.2537 60.8151C44.4774 61.1941 44.7303 61.5536 45.0026 61.9034C46.8018 64.2161 49.4568 65.8 52.5009 66.1887C52.9677 66.2276 53.4443 66.2665 53.9597 66.2665C54.4752 66.2665 54.942 66.2276 55.4185 66.1887C61.069 65.4599 65.3968 60.6208 65.3968 54.839C65.3968 51.3213 63.8116 48.1535 61.283 46.0546ZM61.283 60.9123C60.9912 61.2621 60.6897 61.6022 60.3396 61.9034C58.6279 63.3999 56.4397 64.3425 53.9597 64.3425C51.4797 64.3425 49.3304 63.3999 47.609 61.9034C46.899 61.2621 46.2961 60.5139 45.8001 59.6879C45.4305 59.0854 45.1387 58.4441 44.915 57.7736C44.6038 56.8407 44.4385 55.8593 44.4385 54.839C44.4385 49.5625 48.7274 45.2869 53.9597 45.2869C54.4265 45.2869 54.8836 45.3161 55.331 45.3841C55.9437 45.4715 56.5467 45.6173 57.1107 45.8117C58.7543 46.385 60.1937 47.3956 61.283 48.7074C62.7029 50.3788 63.5198 52.5263 63.5198 54.839C63.5198 57.1517 62.7029 59.2895 61.283 60.9123Z" fill="#183DD0"/>
<path d="M59.8341 52.0987L58.8907 53.0316L52.929 59.0271C52.7151 59.202 52.4622 59.3284 52.1996 59.3284C51.8981 59.3284 51.6453 59.202 51.4313 59.0271L49.1166 56.7241V56.6755L48.7179 56.2868L48.1247 55.6941C47.6967 55.2665 47.6967 54.6252 48.1247 54.2365C48.2997 54.0227 48.5137 53.9353 48.8152 53.9353C49.068 53.8964 49.3695 54.0227 49.5835 54.2365L49.7974 54.4406L52.1996 56.8019L57.7723 51.2339L58.3753 50.6411C58.8032 50.2136 59.4451 50.2136 59.8341 50.6411C60.262 51.0201 60.262 51.6614 59.8341 52.0987Z" fill="#183DD0"/>
</svg>
