<svg width="58" height="68" viewBox="0 0 58 68" fill="none" xmlns="http://www.w3.org/2000/svg">
<g clip-path="url(#clip0_916_4355)">
<path d="M0 33.9997C0 26.2283 0.0980558 18.5054 0 10.734C0 8.11113 1.02959 6.26542 3.13779 4.85685C5.63821 3.20542 8.48183 2.28256 11.3745 1.60256C17.1107 0.291133 22.9451 -0.14601 28.8284 0.0482756C34.3195 0.242561 39.8106 0.87399 45.0566 2.67113C47.1158 3.3997 49.126 4.27399 50.7439 5.73113C52.0676 6.89685 52.705 8.35399 52.705 10.1511C52.656 18.9426 52.705 27.7826 52.705 36.574C52.705 36.7683 52.705 37.0111 52.705 37.2054C52.705 38.0311 52.1167 38.614 51.4303 38.6626C50.6458 38.6626 50.0575 38.1283 49.9104 37.3026C49.9104 37.0597 49.9104 36.7683 49.9104 36.4768C49.9104 34.7283 49.9104 32.9311 49.9104 31.1826C49.9104 30.8911 50.0085 30.3568 49.4201 30.6968C44.1741 33.7083 38.3888 34.5826 32.4565 35.1168C26.0828 35.6997 19.7092 35.4083 13.4336 34.194C10.0017 33.514 6.61877 32.6397 3.57904 30.7454C2.89265 30.3083 2.9907 30.8911 2.9907 31.2311C2.9907 34.2911 3.18681 37.3511 2.94167 40.4111C2.74556 42.9368 4.02029 44.2483 6.03043 45.2197C8.92308 46.6283 12.0118 47.454 15.1496 47.9397C18.7777 48.5226 22.4057 48.814 26.0828 48.8626C26.279 48.8626 26.5241 48.8626 26.7202 48.8626C27.5046 49.0568 27.8478 49.5426 27.8969 50.3683C27.8969 51.194 27.3576 51.3397 26.8183 51.5826C26.2299 51.8254 25.6416 51.5826 25.0533 51.6311C23.2883 51.6797 21.4742 51.6311 19.7582 51.3883C16.3263 50.9997 12.8943 50.514 9.56044 49.494C7.5503 48.8626 5.54015 48.134 3.72612 47.0654C3.23584 46.774 3.03973 46.8226 3.03973 47.4054C3.03973 51.0483 3.03973 54.6426 3.03973 58.2854C3.03973 59.354 3.82418 59.9854 4.60862 60.5683C6.61877 61.9768 8.92308 62.754 11.2764 63.3368C15.1006 64.3083 18.9738 64.8426 22.896 64.9883C24.0237 64.9883 25.1513 65.0854 26.2299 65.134C27.2595 65.134 27.8969 65.7168 27.8478 66.5426C27.8478 67.3683 27.2105 67.9026 26.1809 67.9026C23.8276 67.9026 21.5232 67.8054 19.2189 67.5626C14.8064 67.1254 10.492 66.3483 6.37363 64.6968C4.95182 64.114 3.57904 63.3854 2.40237 62.414C0.735418 61.2483 0 59.694 0 57.7511C0 49.834 0 41.9168 0 34.0483V33.9997ZM2.89265 20.254C2.89265 21.954 2.89265 23.654 2.89265 25.354C2.89265 26.3254 3.28487 27.054 4.02029 27.6854C5.0989 28.5597 6.27557 29.1426 7.5503 29.6283C12.8943 31.6683 18.4835 32.3483 24.1708 32.494C30.2502 32.6397 36.2316 32.2997 42.115 30.6483C44.4683 30.0168 46.8216 29.2397 48.7337 27.6368C49.3221 27.1511 49.8123 26.6168 49.8123 25.7426C49.8123 22.1483 49.8123 18.554 49.8123 14.9597C49.8123 14.2311 49.5672 14.1826 49.0279 14.5711C46.8707 15.8826 44.5664 16.7083 42.164 17.2911C33.388 19.4283 24.5139 19.6226 15.6399 18.3111C11.3254 17.6797 7.15807 16.7083 3.38292 14.4254C2.74556 14.0368 2.89265 14.6197 2.89265 14.8626C2.89265 16.6597 2.89265 18.4568 2.89265 20.254ZM26.328 16.3197C29.2206 16.2226 32.2113 16.174 35.104 15.7368C39.0752 15.2026 42.9975 14.474 46.5765 12.6768C47.508 12.1911 48.4396 11.7054 49.126 10.8797C49.9594 9.90828 49.9594 9.13113 49.126 8.1597C48.6357 7.62542 48.0964 7.18828 47.459 6.7997C45.3998 5.58542 43.1936 4.85685 40.8893 4.32256C31.7701 2.28256 22.5528 2.23399 13.3846 3.98256C10.2468 4.56542 7.15807 5.4397 4.46154 7.28542C2.4514 8.64542 2.45139 10.2968 4.41251 11.6568C5.58918 12.4826 6.91293 13.114 8.28572 13.5997C14.12 15.6397 20.1995 16.0768 26.377 16.2711L26.328 16.3197Z" fill="black"/>
<path d="M45.4979 62.9971H38.9281C38.634 62.9971 38.634 62.9971 38.683 62.7057C38.732 61.0543 39.3204 59.6457 40.399 58.3829C41.4286 57.2171 42.7033 56.5371 44.2232 56.2457C45.5959 56.0029 46.9197 56.1 48.1944 56.6829C50.3516 57.6543 51.7244 59.3057 52.2147 61.6371C52.3128 62.0257 52.3128 62.4143 52.3128 62.7543C52.3128 62.9486 52.3128 62.9486 52.0676 62.9486H45.4488L45.4979 62.9971Z" fill="#183DD0"/>
<path d="M49.2239 51.6314C49.2239 53.6714 47.557 55.3229 45.4488 55.3229C43.3406 55.3229 41.7227 53.6714 41.7227 51.5829C41.7227 49.5429 43.3896 47.8429 45.4488 47.8429C47.5079 47.8429 49.1749 49.4943 49.1749 51.5829L49.2239 51.6314Z" fill="#183DD0"/>
<path d="M35.055 67.8543C34.5157 67.8543 34.0254 67.66 33.5841 67.2229C33.1429 66.7857 32.9468 66.3486 32.9468 65.7657V56.44H35.055V65.7657H44.4683V67.8543H35.055ZM46.5275 67.8543V65.7657H55.9409V56.44H58.0491V65.7657C58.0491 66.3 57.8529 66.7857 57.4117 67.2229C56.9704 67.66 56.5292 67.8543 55.9409 67.8543H46.5275ZM32.9468 54.4V45.0743C32.9468 44.54 33.1429 44.0543 33.5841 43.6171C34.0254 43.18 34.4666 42.9857 35.055 42.9857H44.4683V45.0743H35.055V54.4H32.9468ZM55.9409 54.4V45.0743H46.5275V42.9857H55.9409C56.4802 42.9857 56.9704 43.18 57.4117 43.6171C57.8529 44.0543 58.0491 44.4914 58.0491 45.0743V54.4H55.9409Z" fill="#183DD0"/>
</g>
<defs>
<clipPath id="clip0_916_4355">
<rect width="58" height="68" fill="white"/>
</clipPath>
</defs>
</svg>
