<?xml version="1.0" encoding="UTF-8" standalone="no"?>
<!DOCTYPE svg PUBLIC "-//W3C//DTD SVG 1.1//EN" "http://www.w3.org/Graphics/SVG/1.1/DTD/svg11.dtd">
<!-- 由 Microsoft Visio, SVG Export 生成 antifraud2(1).svg Page-1 -->
<svg xmlns="http://www.w3.org/2000/svg" xmlns:xlink="http://www.w3.org/1999/xlink" xmlns:ev="http://www.w3.org/2001/xml-events"
		xmlns:v="http://schemas.microsoft.com/visio/2003/SVGExtensions/" width="45.2717in" height="31.5709in"
		viewBox="0 0 3259.56 2273.1" xml:space="preserve" color-interpolation-filters="sRGB" class="st22">
	<v:documentProperties v:langID="2052" v:metric="true" v:viewMarkup="false">
		<v:userDefs>
			<v:ud v:nameU="msvSubprocessMaster" v:prompt="" v:val="VT4(Rectangle)"/>
			<v:ud v:nameU="msvNoAutoConnect" v:val="VT0(1):26"/>
		</v:userDefs>
	</v:documentProperties>

	<style type="text/css">
	<![CDATA[
		.st1 {fill:#bfe081;stroke:#000000;stroke-dasharray:42,30;stroke-width:6}
		.st2 {fill:#f3936d;stroke:none;stroke-width:0.25}
		.st3 {fill:#41719c;stroke:none;stroke-width:0.25}
		.st4 {fill:none;stroke:none;stroke-width:0.25}
		.st5 {fill:#000000;font-family:黑体;font-size:10em;font-weight:bold}
		.st6 {fill:#000000;stroke:#000000;stroke-width:0.75}
		.st7 {fill:#000000;stroke:#000000;stroke-width:0.25}
		.st8 {marker-end:url(#mrkr4-69);stroke:#000000;stroke-dasharray:42,30;stroke-linecap:round;stroke-linejoin:round;stroke-width:6}
		.st9 {fill:#000000;fill-opacity:1;stroke:#000000;stroke-opacity:1;stroke-width:0.70422535211268}
		.st10 {fill:#22c88d;stroke:#c7c8c8;stroke-width:0.25}
		.st11 {fill:#000000;font-family:Calibri;font-size:4.99999em;font-style:italic;font-weight:bold}
		.st12 {fill:#ff6262;stroke:#ff6262;stroke-width:0.75}
		.st13 {fill:#ff6262;stroke:#ff6262;stroke-width:0.25}
		.st14 {fill:none;stroke:#000000;stroke-width:6}
		.st15 {fill:none;stroke:#000000;stroke-dasharray:42,30,0.01,30;stroke-width:6}
		.st16 {fill:#4672c4;font-family:Calibri;font-size:4.00001em}
		.st17 {fill:#000000;font-family:黑体;font-size:3em}
		.st18 {fill:#000000;font-family:黑体;font-size:4.99999em}
		.st19 {fill:#000000;stroke:#30518f;stroke-width:0.75}
		.st20 {fill:#ed7d31;stroke:#30518f;stroke-width:0.75}
		.st21 {fill:#000000;font-family:黑体;font-size:2.50001em}
		.st22 {fill:none;fill-rule:evenodd;font-size:12px;overflow:visible;stroke-linecap:square;stroke-miterlimit:3}
	]]>
	</style>

	<defs id="Markers">
		<g id="lend4">
			<path d="M 2 1 L 0 0 L 2 -1 L 2 1 " style="stroke:none"/>
		</g>
		<marker id="mrkr4-69" class="st9" v:arrowType="4" v:arrowSize="2" v:setback="2.84" refX="-2.84" orient="auto"
				markerUnits="strokeWidth" overflow="visible">
			<use xlink:href="#lend4" transform="scale(-1.42,-1.42) "/>
		</marker>
	</defs>
	<g v:mID="0" v:index="1" v:groupContext="foregroundPage">
		<v:userDefs>
			<v:ud v:nameU="msvThemeOrder" v:val="VT0(0):26"/>
		</v:userDefs>
		<title>页-1</title>
		<v:pageProperties v:drawingScale="0.0393701" v:pageScale="0.0393701" v:drawingUnits="24" v:shadowOffsetX="8.50394"
				v:shadowOffsetY="-8.50394"/>
		<v:layer v:name="连接线" v:index="0"/>
		<g id="shape1-1" v:mID="1" v:groupContext="shape" transform="translate(97.2283,-310.677)">
			<title>圆角矩形</title>
			<v:userDefs>
				<v:ud v:nameU="CTypeTopLeftSnip" v:prompt="" v:val="VT0(0):5"/>
				<v:ud v:nameU="CTypeTopRightSnip" v:prompt="" v:val="VT0(0):5"/>
				<v:ud v:nameU="CTypeBotLeftSnip" v:prompt="" v:val="VT0(0):5"/>
				<v:ud v:nameU="CTypeBotRightSnip" v:prompt="" v:val="VT0(0):5"/>
				<v:ud v:nameU="CornerLockHoriz" v:prompt="" v:val="VT0(1):5"/>
				<v:ud v:nameU="CornerLockVert" v:prompt="" v:val="VT0(1):5"/>
				<v:ud v:nameU="CornerLockDiag" v:prompt="" v:val="VT0(0):5"/>
				<v:ud v:nameU="TopLeftOffset" v:prompt="" v:val="VT0(0.15748031496063):24"/>
				<v:ud v:nameU="TopRightOffset" v:prompt="" v:val="VT0(0.15748031496063):24"/>
				<v:ud v:nameU="BotLeftOffset" v:prompt="" v:val="VT0(0.15748031496063):24"/>
				<v:ud v:nameU="BotRightOffset" v:prompt="" v:val="VT0(0.15748031496063):24"/>
				<v:ud v:nameU="visVersion" v:prompt="" v:val="VT0(15):26"/>
				<v:ud v:nameU="visMasterStencil" v:prompt="" v:val="VT4(Basic_M.vssx)"/>
				<v:ud v:nameU="TopLeftOffset" v:prompt="" v:val="VT0(2.4397727784732):1"/>
				<v:ud v:nameU="TopRightOffset" v:prompt="" v:val="VT0(2.4397727784732):1"/>
				<v:ud v:nameU="BotLeftOffset" v:prompt="" v:val="VT0(2.4397727784732):1"/>
				<v:ud v:nameU="BotRightOffset" v:prompt="" v:val="VT0(2.4397727784732):1"/>
			</v:userDefs>
			<path d="M175.66 2273.1 L2766.7 2273.1 A175.661 175.661 -180 0 0 2942.36 2097.44 L2942.36 665.71 A175.661 175.661 -180
						 0 0 2766.7 490.05 L175.66 490.05 A175.661 175.661 -180 0 0 -0 665.71 L0 2097.44 A175.661 175.661 -180 0
						 0 175.66 2273.1 Z" class="st1"/>
		</g>
		<g id="shape5-3" v:mID="5" v:groupContext="shape" transform="translate(494.079,-1654.48)">
			<title>矩形.5</title>
			<v:userDefs>
				<v:ud v:nameU="visVersion" v:val="VT0(15):26"/>
				<v:ud v:nameU="visMasterStencil" v:prompt="" v:val="VT4(Basic_M.vssx)"/>
			</v:userDefs>
			<rect x="0" y="2216.41" width="453.543" height="56.6929" class="st2"/>
		</g>
		<g id="shape6-5" v:mID="6" v:groupContext="shape" transform="translate(494.079,-1591.58)">
			<title>矩形.6</title>
			<v:userDefs>
				<v:ud v:nameU="visVersion" v:val="VT0(15):26"/>
				<v:ud v:nameU="visMasterStencil" v:prompt="" v:val="VT4(Basic_M.vssx)"/>
			</v:userDefs>
			<rect x="0" y="2216.41" width="453.543" height="56.6929" class="st3"/>
		</g>
		<g id="shape7-7" v:mID="7" v:groupContext="shape" transform="translate(494.079,-1529.57)">
			<title>矩形.7</title>
			<v:userDefs>
				<v:ud v:nameU="visVersion" v:val="VT0(15):26"/>
				<v:ud v:nameU="visMasterStencil" v:prompt="" v:val="VT4(Basic_M.vssx)"/>
			</v:userDefs>
			<rect x="0" y="2216.41" width="453.543" height="56.6929" class="st2"/>
		</g>
		<g id="shape8-9" v:mID="8" v:groupContext="shape" transform="translate(494.079,-1466.68)">
			<title>矩形.8</title>
			<v:userDefs>
				<v:ud v:nameU="visVersion" v:val="VT0(15):26"/>
				<v:ud v:nameU="visMasterStencil" v:prompt="" v:val="VT4(Basic_M.vssx)"/>
			</v:userDefs>
			<rect x="0" y="2216.41" width="453.543" height="56.6929" class="st3"/>
		</g>
		<g id="shape9-11" v:mID="9" v:groupContext="shape" transform="translate(494.079,-1404.67)">
			<title>矩形.9</title>
			<v:userDefs>
				<v:ud v:nameU="visVersion" v:val="VT0(15):26"/>
				<v:ud v:nameU="visMasterStencil" v:prompt="" v:val="VT4(Basic_M.vssx)"/>
			</v:userDefs>
			<rect x="0" y="2216.41" width="453.543" height="56.6929" class="st2"/>
		</g>
		<g id="shape10-13" v:mID="10" v:groupContext="shape" transform="translate(494.079,-1341.78)">
			<title>矩形.10</title>
			<v:userDefs>
				<v:ud v:nameU="visVersion" v:val="VT0(15):26"/>
				<v:ud v:nameU="visMasterStencil" v:prompt="" v:val="VT4(Basic_M.vssx)"/>
			</v:userDefs>
			<rect x="0" y="2216.41" width="453.543" height="56.6929" class="st3"/>
		</g>
		<g id="shape11-15" v:mID="11" v:groupContext="shape" transform="translate(494.079,-1279.77)">
			<title>矩形.11</title>
			<v:userDefs>
				<v:ud v:nameU="visVersion" v:val="VT0(15):26"/>
				<v:ud v:nameU="visMasterStencil" v:prompt="" v:val="VT4(Basic_M.vssx)"/>
			</v:userDefs>
			<rect x="0" y="2216.41" width="453.543" height="56.6929" class="st2"/>
		</g>
		<g id="shape12-17" v:mID="12" v:groupContext="shape" transform="translate(18,-1728)">
			<title>工作表.12</title>
			<desc>动态特征列队</desc>
			<v:textBlock v:margins="rect(4,4,4,4)" v:tabSpace="42.5197"/>
			<v:textRect cx="620.717" cy="2117.2" width="1241.44" height="311.811"/>
			<rect x="0" y="1961.29" width="1241.43" height="311.811" class="st4"/>
			<text x="259.31" y="2157.13" class="st5" v:langID="2052"><v:paragraph v:horizAlign="1"/><v:tabList/>动态特征列队</text>		</g>
		<g id="shape14-20" v:mID="14" v:groupContext="shape" transform="translate(485.811,3059.15) rotate(180)">
			<title>现代箭头</title>
			<v:userDefs>
				<v:ud v:nameU="CtrlAngle" v:prompt="" v:val="VT0(0.78539816339745):32"/>
				<v:ud v:nameU="visVersion" v:prompt="" v:val="VT0(15):26"/>
				<v:ud v:nameU="CtrlAngle" v:prompt="" v:val="VT0(0.62833160353796):32"/>
			</v:userDefs>
			<path d="M0 2273.1 L113.39 2190.72 L122.26 2202.93 L36.07 2265.56 L311.81 2265.56 L311.81 2280.65 L36.07 2280.65 L122.26
						 2343.27 L113.39 2355.48 L0 2273.1 Z" class="st6"/>
		</g>
		<g id="shape17-22" v:mID="17" v:groupContext="shape" transform="translate(3943.56,304.158) rotate(90)">
			<title>矩形.17</title>
			<v:userDefs>
				<v:ud v:nameU="visVersion" v:val="VT0(15):26"/>
				<v:ud v:nameU="visMasterStencil" v:prompt="" v:val="VT4(Basic_M.vssx)"/>
			</v:userDefs>
			<rect x="0" y="2216.41" width="453.543" height="56.6929" class="st2"/>
		</g>
		<g id="shape21-24" v:mID="21" v:groupContext="shape" transform="translate(947.622,-1492.52)">
			<title>矩形.21</title>
			<v:userDefs>
				<v:ud v:nameU="visVersion" v:val="VT0(15):26"/>
				<v:ud v:nameU="visMasterStencil" v:prompt="" v:val="VT4(Basic_M.vssx)"/>
			</v:userDefs>
			<rect x="0" y="2257.31" width="204.094" height="15.793" class="st7"/>
		</g>
		<g id="shape22-26" v:mID="22" v:groupContext="shape" transform="translate(3424.82,524.652) rotate(90)">
			<title>矩形.22</title>
			<v:userDefs>
				<v:ud v:nameU="visVersion" v:val="VT0(15):26"/>
				<v:ud v:nameU="visMasterStencil" v:prompt="" v:val="VT4(Basic_M.vssx)"/>
			</v:userDefs>
			<rect x="0" y="2257.31" width="828.324" height="15.793" class="st7"/>
		</g>
		<g id="shape23-28" v:mID="23" v:groupContext="shape" transform="translate(1656.28,2797.75) rotate(180)">
			<title>现代箭头.23</title>
			<v:userDefs>
				<v:ud v:nameU="CtrlAngle" v:prompt="" v:val="VT0(0.78539816339745):32"/>
				<v:ud v:nameU="visVersion" v:prompt="" v:val="VT0(15):26"/>
				<v:ud v:nameU="CtrlAngle" v:prompt="" v:val="VT0(0.59619906227525):32"/>
			</v:userDefs>
			<path d="M0 2273.1 L51.02 2238.48 L59.5 2250.97 L38 2265.56 L504.3 2265.56 L504.3 2280.65 L38 2280.65 L59.5 2295.24 L51.02
						 2307.73 L0 2273.1 Z" class="st6"/>
		</g>
		<g id="shape24-30" v:mID="24" v:groupContext="shape" transform="translate(1429.51,3626.08) rotate(180)">
			<title>现代箭头.24</title>
			<v:userDefs>
				<v:ud v:nameU="CtrlAngle" v:prompt="" v:val="VT0(0.78539816339745):32"/>
				<v:ud v:nameU="visVersion" v:prompt="" v:val="VT0(15):26"/>
				<v:ud v:nameU="CtrlAngle" v:prompt="" v:val="VT0(0.59619906227525):32"/>
			</v:userDefs>
			<path d="M0 2273.1 L51.02 2238.48 L59.5 2250.97 L38 2265.56 L277.53 2265.56 L277.53 2280.65 L38 2280.65 L59.5 2295.24
						 L51.02 2307.73 L0 2273.1 Z" class="st6"/>
		</g>
		<g id="shape25-32" v:mID="25" v:groupContext="shape" transform="translate(2237.39,2789.86) rotate(180)">
			<title>矩形.25</title>
			<v:userDefs>
				<v:ud v:nameU="visVersion" v:val="VT0(15):26"/>
				<v:ud v:nameU="visMasterStencil" v:prompt="" v:val="VT4(Basic_M.vssx)"/>
			</v:userDefs>
			<rect x="0" y="2257.31" width="496.063" height="15.793" class="st7"/>
		</g>
		<g id="shape26-34" v:mID="26" v:groupContext="shape" transform="translate(-35.126,729.354) rotate(-90)">
			<title>现代箭头.26</title>
			<v:userDefs>
				<v:ud v:nameU="CtrlAngle" v:prompt="" v:val="VT0(0.78539816339745):32"/>
				<v:ud v:nameU="visVersion" v:prompt="" v:val="VT0(15):26"/>
				<v:ud v:nameU="CtrlAngle" v:prompt="" v:val="VT0(0.59619906227525):32"/>
			</v:userDefs>
			<path d="M0 2273.1 L51.02 2238.48 L59.5 2250.97 L38 2265.56 L212.33 2265.56 L212.33 2280.65 L38 2280.65 L59.5 2295.24
						 L51.02 2307.73 L0 2273.1 Z" class="st6"/>
		</g>
		<g id="shape28-36" v:mID="28" v:groupContext="shape" transform="translate(-6.12997,1182.9) rotate(-90)">
			<title>矩形.28</title>
			<v:userDefs>
				<v:ud v:nameU="visVersion" v:val="VT0(15):26"/>
				<v:ud v:nameU="visMasterStencil" v:prompt="" v:val="VT4(Basic_M.vssx)"/>
			</v:userDefs>
			<rect x="0" y="2216.41" width="453.543" height="56.6929" class="st2"/>
		</g>
		<g id="shape29-38" v:mID="29" v:groupContext="shape" transform="translate(56.7637,1182.9) rotate(-90)">
			<title>矩形.29</title>
			<v:userDefs>
				<v:ud v:nameU="visVersion" v:val="VT0(15):26"/>
				<v:ud v:nameU="visMasterStencil" v:prompt="" v:val="VT4(Basic_M.vssx)"/>
			</v:userDefs>
			<rect x="0" y="2216.41" width="453.543" height="56.6929" class="st3"/>
		</g>
		<g id="shape30-40" v:mID="30" v:groupContext="shape" transform="translate(3723.06,1242.28) rotate(90)">
			<title>矩形.30</title>
			<v:userDefs>
				<v:ud v:nameU="visVersion" v:val="VT0(15):26"/>
				<v:ud v:nameU="visMasterStencil" v:prompt="" v:val="VT4(Basic_M.vssx)"/>
			</v:userDefs>
			<rect x="0" y="2216.41" width="453.543" height="56.6929" class="st3"/>
		</g>
		<g id="shape31-42" v:mID="31" v:groupContext="shape" transform="translate(3808.1,1242.28) rotate(90)">
			<title>矩形.31</title>
			<v:userDefs>
				<v:ud v:nameU="visVersion" v:val="VT0(15):26"/>
				<v:ud v:nameU="visMasterStencil" v:prompt="" v:val="VT4(Basic_M.vssx)"/>
			</v:userDefs>
			<rect x="0" y="2216.41" width="453.543" height="56.6929" class="st3"/>
		</g>
		<g id="shape32-44" v:mID="32" v:groupContext="shape" transform="translate(3893.14,1242.28) rotate(90)">
			<title>矩形.32</title>
			<v:userDefs>
				<v:ud v:nameU="visVersion" v:val="VT0(15):26"/>
				<v:ud v:nameU="visMasterStencil" v:prompt="" v:val="VT4(Basic_M.vssx)"/>
			</v:userDefs>
			<rect x="0" y="2216.41" width="453.543" height="56.6929" class="st3"/>
		</g>
		<g id="shape33-46" v:mID="33" v:groupContext="shape" transform="translate(4261.65,1242.28) rotate(90)">
			<title>矩形.33</title>
			<v:userDefs>
				<v:ud v:nameU="visVersion" v:val="VT0(15):26"/>
				<v:ud v:nameU="visMasterStencil" v:prompt="" v:val="VT4(Basic_M.vssx)"/>
			</v:userDefs>
			<rect x="0" y="2216.41" width="453.543" height="56.6929" class="st3"/>
		</g>
		<g id="shape34-48" v:mID="34" v:groupContext="shape" transform="translate(1728.87,-748.63)">
			<title>圆形</title>
			<v:userDefs>
				<v:ud v:nameU="visVersion" v:val="VT0(15):26"/>
				<v:ud v:nameU="visMasterStencil" v:prompt="" v:val="VT4(Basic_M.vssx)"/>
			</v:userDefs>
			<path d="M0 2257.51 A15.5906 15.5906 0 0 1 31.18 2257.51 A15.5906 15.5906 0 1 1 0 2257.51 Z" class="st7"/>
		</g>
		<g id="shape35-50" v:mID="35" v:groupContext="shape" transform="translate(2073.58,3461.67) rotate(180)">
			<title>矩形.35</title>
			<v:userDefs>
				<v:ud v:nameU="visVersion" v:val="VT0(15):26"/>
				<v:ud v:nameU="visMasterStencil" v:prompt="" v:val="VT4(Basic_M.vssx)"/>
			</v:userDefs>
			<rect x="0" y="2242.53" width="658.245" height="30.5737" class="st7"/>
		</g>
		<g id="shape36-52" v:mID="36" v:groupContext="shape" transform="translate(2073.58,3994.58) rotate(180)">
			<title>矩形.36</title>
			<v:userDefs>
				<v:ud v:nameU="visVersion" v:val="VT0(15):26"/>
				<v:ud v:nameU="visMasterStencil" v:prompt="" v:val="VT4(Basic_M.vssx)"/>
			</v:userDefs>
			<rect x="0" y="2242.53" width="658.245" height="30.5737" class="st7"/>
		</g>
		<g id="shape37-54" v:mID="37" v:groupContext="shape" transform="translate(1821.77,-748.63)">
			<title>圆形.37</title>
			<v:userDefs>
				<v:ud v:nameU="visVersion" v:val="VT0(15):26"/>
				<v:ud v:nameU="visMasterStencil" v:prompt="" v:val="VT4(Basic_M.vssx)"/>
			</v:userDefs>
			<path d="M0 2257.51 A15.5906 15.5906 0 0 1 31.18 2257.51 A15.5906 15.5906 0 1 1 0 2257.51 Z" class="st7"/>
		</g>
		<g id="shape38-56" v:mID="38" v:groupContext="shape" transform="translate(1914.66,-748.63)">
			<title>圆形.38</title>
			<v:userDefs>
				<v:ud v:nameU="visVersion" v:val="VT0(15):26"/>
				<v:ud v:nameU="visMasterStencil" v:prompt="" v:val="VT4(Basic_M.vssx)"/>
			</v:userDefs>
			<path d="M0 2257.51 A15.5906 15.5906 0 0 1 31.18 2257.51 A15.5906 15.5906 0 1 1 0 2257.51 Z" class="st7"/>
		</g>
		<g id="shape39-58" v:mID="39" v:groupContext="shape" transform="translate(494.079,-1217.76)">
			<title>矩形.39</title>
			<v:userDefs>
				<v:ud v:nameU="visVersion" v:val="VT0(15):26"/>
				<v:ud v:nameU="visMasterStencil" v:prompt="" v:val="VT4(Basic_M.vssx)"/>
			</v:userDefs>
			<rect x="0" y="2216.41" width="453.543" height="56.6929" class="st3"/>
		</g>
		<g id="shape40-60" v:mID="40" v:groupContext="shape" transform="translate(2776.64,-366.522) rotate(45)">
			<title>十字形</title>
			<v:userDefs>
				<v:ud v:nameU="ScaleFactor" v:val="VT0(1):26"/>
				<v:ud v:nameU="ControlX1" v:val="VT0(0):26"/>
				<v:ud v:nameU="ControlY1" v:val="VT0(0.66929133858268):24"/>
				<v:ud v:nameU="ControlX2" v:val="VT0(0.66929133858268):24"/>
				<v:ud v:nameU="ControlY2" v:val="VT0(0):26"/>
				<v:ud v:nameU="visVersion" v:val="VT0(15):26"/>
				<v:ud v:nameU="LockBars" v:prompt="" v:val="VT0(1):5"/>
				<v:ud v:nameU="visMasterStencil" v:prompt="" v:val="VT4(Basic_M.vssx)"/>
				<v:ud v:nameU="ControlY1" v:prompt="" v:val="VT0(0.9350393525495):1"/>
				<v:ud v:nameU="ControlX2" v:prompt="" v:val="VT0(0.9350393525495):1"/>
			</v:userDefs>
			<path d="M0 2205.78 L67.32 2205.78 L67.32 2273.1 L98.5 2273.1 L98.5 2205.78 L165.83 2205.78 L165.83 2174.6 L98.5 2174.6
						 L98.5 2107.28 L67.32 2107.28 L67.32 2174.6 L0 2174.6 L0 2205.78 Z" class="st7"/>
		</g>
		<g id="shape41-62" v:mID="41" v:groupContext="shape" transform="translate(2915.04,-999.773) rotate(45)">
			<title>十字形.41</title>
			<v:userDefs>
				<v:ud v:nameU="ScaleFactor" v:val="VT0(1):26"/>
				<v:ud v:nameU="ControlX1" v:val="VT0(0):26"/>
				<v:ud v:nameU="ControlY1" v:val="VT0(0.66929133858268):24"/>
				<v:ud v:nameU="ControlX2" v:val="VT0(0.66929133858268):24"/>
				<v:ud v:nameU="ControlY2" v:val="VT0(0):26"/>
				<v:ud v:nameU="visVersion" v:val="VT0(15):26"/>
				<v:ud v:nameU="LockBars" v:prompt="" v:val="VT0(1):5"/>
				<v:ud v:nameU="visMasterStencil" v:prompt="" v:val="VT4(Basic_M.vssx)"/>
				<v:ud v:nameU="ControlY1" v:prompt="" v:val="VT0(0.70127951441212):1"/>
				<v:ud v:nameU="ControlX2" v:prompt="" v:val="VT0(0.70127951441212):1"/>
			</v:userDefs>
			<path d="M0 2222.61 L50.49 2222.61 L50.49 2273.1 L81.67 2273.1 L81.67 2222.61 L132.17 2222.61 L132.17 2191.43 L81.67
						 2191.43 L81.67 2140.94 L50.49 2140.94 L50.49 2191.43 L0 2191.43 L0 2222.61 Z" class="st7"/>
		</g>
		<g id="shape42-64" v:mID="42" v:groupContext="shape" v:layerMember="0" transform="translate(720.85,-1217.76)">
			<title>动态连接线</title>
			<path d="M0 2273.1 L0 2641.61 L240.94 2641.61 L240.94 2723.78" class="st8"/>
		</g>
		<g id="shape49-70" v:mID="49" v:groupContext="shape" transform="translate(2053.13,-948.472)">
			<title>矩形.49</title>
			<v:userDefs>
				<v:ud v:nameU="visVersion" v:val="VT0(15):26"/>
				<v:ud v:nameU="visMasterStencil" v:prompt="" v:val="VT4(Basic_M.vssx)"/>
			</v:userDefs>
			<rect x="0" y="2257.31" width="246.918" height="15.793" class="st7"/>
		</g>
		<g id="shape50-72" v:mID="50" v:groupContext="shape" transform="translate(4573.15,1188.87) rotate(90)">
			<title>现代箭头.50</title>
			<v:userDefs>
				<v:ud v:nameU="CtrlAngle" v:prompt="" v:val="VT0(0.78539816339745):32"/>
				<v:ud v:nameU="visVersion" v:prompt="" v:val="VT0(15):26"/>
				<v:ud v:nameU="CtrlAngle" v:prompt="" v:val="VT0(0.59619906227525):32"/>
			</v:userDefs>
			<path d="M0 2273.1 L51.02 2238.48 L59.5 2250.97 L38 2265.56 L135.49 2265.56 L135.49 2280.65 L38 2280.65 L59.5 2295.24
						 L51.02 2307.73 L0 2273.1 Z" class="st6"/>
		</g>
		<g id="shape51-74" v:mID="51" v:groupContext="shape" transform="translate(2563.37,3285.92) rotate(180)">
			<title>现代箭头.51</title>
			<v:userDefs>
				<v:ud v:nameU="CtrlAngle" v:prompt="" v:val="VT0(0.78539816339745):32"/>
				<v:ud v:nameU="visVersion" v:prompt="" v:val="VT0(15):26"/>
				<v:ud v:nameU="CtrlAngle" v:prompt="" v:val="VT0(0.59619906227525):32"/>
			</v:userDefs>
			<path d="M0 2273.1 L51.02 2238.48 L59.5 2250.97 L38 2265.56 L212.6 2265.56 L212.6 2280.65 L38 2280.65 L59.5 2295.24 L51.02
						 2307.73 L0 2273.1 Z" class="st6"/>
		</g>
		<g id="shape52-76" v:mID="52" v:groupContext="shape" transform="translate(2581.09,-1210.68)">
			<title>圆角矩形.52</title>
			<desc>Loss</desc>
			<v:userDefs>
				<v:ud v:nameU="CTypeTopLeftSnip" v:prompt="" v:val="VT0(0):5"/>
				<v:ud v:nameU="CTypeTopRightSnip" v:prompt="" v:val="VT0(0):5"/>
				<v:ud v:nameU="CTypeBotLeftSnip" v:prompt="" v:val="VT0(0):5"/>
				<v:ud v:nameU="CTypeBotRightSnip" v:prompt="" v:val="VT0(0):5"/>
				<v:ud v:nameU="CornerLockHoriz" v:prompt="" v:val="VT0(1):5"/>
				<v:ud v:nameU="CornerLockVert" v:prompt="" v:val="VT0(1):5"/>
				<v:ud v:nameU="CornerLockDiag" v:prompt="" v:val="VT0(0):5"/>
				<v:ud v:nameU="TopLeftOffset" v:prompt="" v:val="VT0(0.15748031496063):24"/>
				<v:ud v:nameU="TopRightOffset" v:prompt="" v:val="VT0(0.15748031496063):24"/>
				<v:ud v:nameU="BotLeftOffset" v:prompt="" v:val="VT0(0.15748031496063):24"/>
				<v:ud v:nameU="BotRightOffset" v:prompt="" v:val="VT0(0.15748031496063):24"/>
				<v:ud v:nameU="visVersion" v:prompt="" v:val="VT0(15):26"/>
				<v:ud v:nameU="visMasterStencil" v:prompt="" v:val="VT4(Basic_M.vssx)"/>
				<v:ud v:nameU="TopLeftOffset" v:prompt="" v:val="VT0(0.47244036122594):1"/>
				<v:ud v:nameU="TopRightOffset" v:prompt="" v:val="VT0(0.47244036122594):1"/>
				<v:ud v:nameU="BotLeftOffset" v:prompt="" v:val="VT0(0.47244036122594):1"/>
				<v:ud v:nameU="BotRightOffset" v:prompt="" v:val="VT0(0.47244036122594):1"/>
			</v:userDefs>
			<v:textBlock v:margins="rect(4,4,4,4)" v:tabSpace="42.5197"/>
			<v:textRect cx="127.559" cy="2195.15" width="255.12" height="155.906"/>
			<path d="M34.02 2273.1 L221.1 2273.1 A34.0151 34.0151 -180 0 0 255.12 2239.09 L255.12 2151.21 A34.0151 34.0151 -180 0
						 0 221.1 2117.2 L34.02 2117.2 A34.0151 34.0151 -180 0 0 0 2151.21 L0 2239.09 A34.0151 34.0151 -180 0 0 34.02
						 2273.1 Z" class="st10"/>
			<text x="75.41" y="2213.15" class="st11" v:langID="2052"><v:paragraph v:horizAlign="1"/><v:tabList/>Loss</text>		</g>
		<g id="shape53-79" v:mID="53" v:groupContext="shape" transform="translate(2350.77,-1316.98)">
			<title>现代箭头.53</title>
			<v:userDefs>
				<v:ud v:nameU="CtrlAngle" v:prompt="" v:val="VT0(0.78539816339745):32"/>
				<v:ud v:nameU="visVersion" v:prompt="" v:val="VT0(15):26"/>
				<v:ud v:nameU="CtrlAngle" v:prompt="" v:val="VT0(0.59619906227525):32"/>
			</v:userDefs>
			<path d="M0 2273.1 L51.02 2238.48 L59.5 2250.97 L38 2265.56 L212.6 2265.56 L212.6 2280.65 L38 2280.65 L59.5 2295.24 L51.02
						 2307.73 L0 2273.1 Z" class="st12"/>
		</g>
		<g id="shape54-81" v:mID="54" v:groupContext="shape" transform="translate(34.9258,723.685) rotate(-90)">
			<title>矩形.54</title>
			<v:userDefs>
				<v:ud v:nameU="visVersion" v:val="VT0(15):26"/>
				<v:ud v:nameU="visMasterStencil" v:prompt="" v:val="VT4(Basic_M.vssx)"/>
			</v:userDefs>
			<rect x="0" y="2257.31" width="263.622" height="15.793" class="st13"/>
		</g>
		<g id="shape55-83" v:mID="55" v:groupContext="shape" transform="translate(1741.32,-1813.04)">
			<title>现代箭头.55</title>
			<v:userDefs>
				<v:ud v:nameU="CtrlAngle" v:prompt="" v:val="VT0(0.78539816339745):32"/>
				<v:ud v:nameU="visVersion" v:prompt="" v:val="VT0(15):26"/>
				<v:ud v:nameU="CtrlAngle" v:prompt="" v:val="VT0(0.59619906227525):32"/>
			</v:userDefs>
			<path d="M0 2273.1 L51.02 2238.48 L59.5 2250.97 L38 2265.56 L566.66 2265.56 L566.66 2280.65 L38 2280.65 L59.5 2295.24
						 L51.02 2307.73 L0 2273.1 Z" class="st12"/>
		</g>
		<g id="shape56-85" v:mID="56" v:groupContext="shape" transform="translate(-1169.33,711.562) rotate(-90)">
			<title>矩形.56</title>
			<v:userDefs>
				<v:ud v:nameU="visVersion" v:val="VT0(15):26"/>
				<v:ud v:nameU="visMasterStencil" v:prompt="" v:val="VT4(Basic_M.vssx)"/>
			</v:userDefs>
			<rect x="0" y="2257.31" width="265.673" height="15.793" class="st13"/>
		</g>
		<g id="shape57-87" v:mID="57" v:groupContext="shape" transform="translate(947.622,-1561.02)">
			<title>现代箭头.57</title>
			<v:userDefs>
				<v:ud v:nameU="CtrlAngle" v:prompt="" v:val="VT0(0.78539816339745):32"/>
				<v:ud v:nameU="visVersion" v:prompt="" v:val="VT0(15):26"/>
				<v:ud v:nameU="CtrlAngle" v:prompt="" v:val="VT0(0.59619906227525):32"/>
			</v:userDefs>
			<path d="M0 2273.1 L51.02 2238.48 L59.5 2250.97 L38 2265.56 L155.91 2265.56 L155.91 2280.65 L38 2280.65 L59.5 2295.24
						 L51.02 2307.73 L0 2273.1 Z" class="st12"/>
		</g>
		<g id="shape58-89" v:mID="58" v:groupContext="shape" transform="translate(1087.98,-1811.42)">
			<title>矩形.58</title>
			<v:userDefs>
				<v:ud v:nameU="visVersion" v:val="VT0(15):26"/>
				<v:ud v:nameU="visMasterStencil" v:prompt="" v:val="VT4(Basic_M.vssx)"/>
			</v:userDefs>
			<rect x="0" y="2257.31" width="554.134" height="15.793" class="st13"/>
		</g>
		<g id="shape63-91" v:mID="63" v:groupContext="shape" v:layerMember="0" transform="translate(975.968,-849.26)">
			<title>动态连接线.63</title>
			<path d="M0 2273.1 L226.77 2273.1 L226.77 1557.35 L677.45 1557.35" class="st8"/>
		</g>
		<g id="shape65-96" v:mID="65" v:groupContext="shape" transform="translate(805.89,-563.137)">
			<title>菱形</title>
			<v:userDefs>
				<v:ud v:nameU="visVersion" v:prompt="" v:val="VT0(15):26"/>
				<v:ud v:nameU="visMasterStencil" v:prompt="" v:val="VT4(Basic_M.vssx)"/>
			</v:userDefs>
			<path d="M155.91 2273.1 L311.81 2179.65 L155.91 2086.19 L0 2179.65 L155.91 2273.1 Z" class="st14"/>
		</g>
		<g id="shape66-98" v:mID="66" v:groupContext="shape" v:layerMember="0" transform="translate(954.709,-563.137)">
			<title>动态连接线.66</title>
			<path d="M7.09 2273.1 L7.09 2409.31" class="st8"/>
		</g>
		<g id="shape67-103" v:mID="67" v:groupContext="shape" v:layerMember="0" transform="translate(1117.7,-650.879)">
			<title>动态连接线.67</title>
			<path d="M0 2267.39 L308.94 2264.79" class="st8"/>
		</g>
		<g id="shape68-108" v:mID="68" v:groupContext="shape" v:layerMember="0" transform="translate(2045.24,-686.268)">
			<title>动态连接线.68</title>
			<path d="M0 2280.19 L387.71 2280.19" class="st8"/>
		</g>
		<g id="shape69-113" v:mID="69" v:groupContext="shape" transform="translate(664.157,-353.197)">
			<title>圆角矩形.69</title>
			<v:userDefs>
				<v:ud v:nameU="CTypeTopLeftSnip" v:prompt="" v:val="VT0(0):5"/>
				<v:ud v:nameU="CTypeTopRightSnip" v:prompt="" v:val="VT0(0):5"/>
				<v:ud v:nameU="CTypeBotLeftSnip" v:prompt="" v:val="VT0(0):5"/>
				<v:ud v:nameU="CTypeBotRightSnip" v:prompt="" v:val="VT0(0):5"/>
				<v:ud v:nameU="CornerLockHoriz" v:prompt="" v:val="VT0(1):5"/>
				<v:ud v:nameU="CornerLockVert" v:prompt="" v:val="VT0(1):5"/>
				<v:ud v:nameU="CornerLockDiag" v:prompt="" v:val="VT0(0):5"/>
				<v:ud v:nameU="TopLeftOffset" v:prompt="" v:val="VT0(0.15748031496063):24"/>
				<v:ud v:nameU="TopRightOffset" v:prompt="" v:val="VT0(0.15748031496063):24"/>
				<v:ud v:nameU="BotLeftOffset" v:prompt="" v:val="VT0(0.15748031496063):24"/>
				<v:ud v:nameU="BotRightOffset" v:prompt="" v:val="VT0(0.15748031496063):24"/>
				<v:ud v:nameU="visVersion" v:prompt="" v:val="VT0(15):26"/>
				<v:ud v:nameU="visMasterStencil" v:prompt="" v:val="VT4(Basic_M.vssx)"/>
				<v:ud v:nameU="TopLeftOffset" v:prompt="" v:val="VT0(1.4405286762754):1"/>
				<v:ud v:nameU="TopRightOffset" v:prompt="" v:val="VT0(1.4405286762754):1"/>
				<v:ud v:nameU="BotLeftOffset" v:prompt="" v:val="VT0(1.4405286762754):1"/>
				<v:ud v:nameU="BotRightOffset" v:prompt="" v:val="VT0(1.4405286762754):1"/>
			</v:userDefs>
			<path d="M103.72 2273.1 L1738.8 2273.1 A103.716 103.716 -180 0 0 1842.52 2169.38 L1842.52 1923.28 A103.716 103.716 -180
						 0 0 1738.8 1819.56 L103.72 1819.56 A103.716 103.716 -180 0 0 0 1923.28 L0 2169.38 A103.716 103.716 -180
						 0 0 103.72 2273.1 Z" class="st15"/>
		</g>
		<g id="shape70-115" v:mID="70" v:groupContext="shape" transform="translate(844.538,-627.538)">
			<title>工作表.70</title>
			<desc>IF sim &#62; a</desc>
			<v:textBlock v:margins="rect(4,4,4,4)" v:tabSpace="42.5197"/>
			<v:textRect cx="117.257" cy="2244.05" width="234.52" height="58.1082"/>
			<rect x="0" y="2214.99" width="234.514" height="58.1082" class="st4"/>
			<text x="26.39" y="2258.45" class="st16" v:langID="2052"><v:paragraph v:horizAlign="1"/><v:tabList/>IF sim &#62; a</text>		</g>
		<g id="shape71-118" v:mID="71" v:groupContext="shape" transform="translate(1741.32,-1523.75)">
			<title>工作表.71</title>
			<desc>线性层</desc>
			<v:textBlock v:margins="rect(4,4,4,4)" v:tabSpace="42.5197"/>
			<v:textRect cx="76" cy="2263.1" width="152.01" height="20"/>
			<rect x="0" y="2253.1" width="152" height="20" class="st4"/>
			<text x="22" y="2275.08" class="st17" v:langID="2052"><v:paragraph v:horizAlign="1"/><v:tabList/>线性层</text>		</g>
		<g id="shape72-121" v:mID="72" v:groupContext="shape" transform="translate(4033.66,-1331.52) rotate(45)">
			<title>十字形.72</title>
			<v:userDefs>
				<v:ud v:nameU="ScaleFactor" v:val="VT0(1):26"/>
				<v:ud v:nameU="ControlX1" v:val="VT0(0):26"/>
				<v:ud v:nameU="ControlY1" v:val="VT0(0.66929133858268):24"/>
				<v:ud v:nameU="ControlX2" v:val="VT0(0.66929133858268):24"/>
				<v:ud v:nameU="ControlY2" v:val="VT0(0):26"/>
				<v:ud v:nameU="visVersion" v:val="VT0(15):26"/>
				<v:ud v:nameU="LockBars" v:prompt="" v:val="VT0(1):5"/>
				<v:ud v:nameU="visMasterStencil" v:prompt="" v:val="VT4(Basic_M.vssx)"/>
				<v:ud v:nameU="ControlY1" v:prompt="" v:val="VT0(0.70127951441212):1"/>
				<v:ud v:nameU="ControlX2" v:prompt="" v:val="VT0(0.70127951441212):1"/>
			</v:userDefs>
			<path d="M0 2222.61 L50.49 2222.61 L50.49 2273.1 L81.67 2273.1 L81.67 2222.61 L132.17 2222.61 L132.17 2191.43 L81.67
						 2191.43 L81.67 2140.94 L50.49 2140.94 L50.49 2191.43 L0 2191.43 L0 2222.61 Z" class="st7"/>
		</g>
		<g id="shape73-123" v:mID="73" v:groupContext="shape" transform="translate(2580.38,-1883.91)">
			<title>工作表.73</title>
			<desc>相似度计算</desc>
			<v:textBlock v:margins="rect(4,4,4,4)" v:tabSpace="42.5197"/>
			<v:textRect cx="209.764" cy="2159.72" width="419.53" height="226.772"/>
			<rect x="0" y="2046.33" width="419.528" height="226.772" class="st4"/>
			<text x="59.76" y="2179.69" class="st18" v:langID="2052"><v:paragraph v:horizAlign="1"/><v:tabList/>相似度计算</text>		</g>
		<g id="shape74-126" v:mID="74" v:groupContext="shape" transform="translate(2460.58,-1855.56)">
			<title>现代箭头.74</title>
			<v:userDefs>
				<v:ud v:nameU="CtrlAngle" v:prompt="" v:val="VT0(0.78539816339745):32"/>
				<v:ud v:nameU="visVersion" v:prompt="" v:val="VT0(15):26"/>
			</v:userDefs>
			<path d="M0 2273.1 L27 2246.1 L33.36 2252.47 L17.23 2268.6 L116.97 2268.6 L116.97 2277.6 L17.23 2277.6 L33.36 2293.74
						 L27 2300.1 L0 2273.1 Z" class="st19"/>
		</g>
		<g id="shape75-128" v:mID="75" v:groupContext="shape" transform="translate(2591.54,2789.86) rotate(180)">
			<title>现代箭头.75</title>
			<v:userDefs>
				<v:ud v:nameU="CtrlAngle" v:prompt="" v:val="VT0(0.78539816339745):32"/>
				<v:ud v:nameU="visVersion" v:prompt="" v:val="VT0(15):26"/>
			</v:userDefs>
			<path d="M0 2273.1 L27 2246.1 L33.36 2252.47 L17.23 2268.6 L120.85 2268.6 L120.85 2277.6 L17.23 2277.6 L33.36 2293.74
						 L27 2300.1 L0 2273.1 Z" class="st20"/>
		</g>
		<g id="shape78-130" v:mID="78" v:groupContext="shape" transform="translate(2591.72,-1813.04)">
			<title>工作表.78</title>
			<desc>前向传播</desc>
			<v:textBlock v:margins="rect(4,4,4,4)" v:tabSpace="42.5197"/>
			<v:textRect cx="174.331" cy="2223.5" width="348.67" height="99.2126"/>
			<rect x="0" y="2173.89" width="348.661" height="99.2126" class="st4"/>
			<text x="54.33" y="2243.46" class="st18" v:langID="2052"><v:paragraph v:horizAlign="1"/><v:tabList/>前向传播</text>		</g>
		<g id="shape79-133" v:mID="79" v:groupContext="shape" transform="translate(2612.13,-1696.23)">
			<title>工作表.79</title>
			<desc>反向更新</desc>
			<v:textBlock v:margins="rect(4,4,4,4)" v:tabSpace="42.5197"/>
			<v:textRect cx="152.787" cy="2209.32" width="305.58" height="127.559"/>
			<rect x="0" y="2145.54" width="305.575" height="127.559" class="st4"/>
			<text x="32.79" y="2229.29" class="st18" v:langID="2052"><v:paragraph v:horizAlign="1"/><v:tabList/>反向更新</text>		</g>
		<g id="shape80-136" v:mID="80" v:groupContext="shape" transform="translate(324,-1699.65)">
			<title>工作表.80</title>
			<desc>特征</desc>
			<v:textBlock v:margins="rect(4,4,4,4)" v:tabSpace="42.5197"/>
			<v:textRect cx="212.598" cy="2236.34" width="425.2" height="73.5236"/>
			<rect x="0" y="2199.58" width="425.197" height="73.5236" class="st4"/>
			<text x="176.6" y="2248.32" class="st17" v:langID="2052"><v:paragraph v:horizAlign="1"/><v:tabList/>特征</text>		</g>
		<g id="shape81-139" v:mID="81" v:groupContext="shape" transform="translate(2134.08,-812.936)">
			<title>工作表.81</title>
			<desc>列队更新</desc>
			<v:textBlock v:margins="rect(4,4,4,4)" v:tabSpace="42.5197"/>
			<v:textRect cx="170.079" cy="2244.76" width="340.16" height="56.6929"/>
			<rect x="0" y="2216.41" width="340.157" height="56.6929" class="st4"/>
			<text x="110.08" y="2254.74" class="st21" v:langID="2052"><v:paragraph v:horizAlign="1"/><v:tabList/>列队更新</text>		</g>
	</g>
</svg>
